<?xml version="1.0" encoding="UTF-8" standalone="no"?>
<!DOCTYPE svg PUBLIC "-//W3C//DTD SVG 1.1//EN"
 "http://www.w3.org/Graphics/SVG/1.1/DTD/svg11.dtd">
<!-- Generated by graphviz version 14.1.1 (20251213.1925)
 -->
<!-- Title: InheritanceTree Pages: 1 -->
<svg width="239pt" height="357pt"
 viewBox="0.00 0.00 239.00 357.00" xmlns="http://www.w3.org/2000/svg" xmlns:xlink="http://www.w3.org/1999/xlink">
<g id="graph0" class="graph" transform="scale(1 1) rotate(0) translate(4 352.5)">
<title>InheritanceTree</title>
<polygon fill="white" stroke="none" points="-4,4 -4,-352.5 235.25,-352.5 235.25,4 -4,4"/>
<text xml:space="preserve" text-anchor="middle" x="115.62" y="-7.2" font-family="Times New Roman,serif" font-size="14.00">simple_shaderc &#45; Inheritance Hierarchy</text>
<!-- SHADERC_COMPILER -->
<g id="node1" class="node">
<title>SHADERC_COMPILER</title>
<path fill="none" stroke="black" d="M181,-60.5C181,-60.5 50.25,-60.5 50.25,-60.5 44.25,-60.5 38.25,-54.5 38.25,-48.5 38.25,-48.5 38.25,-36.5 38.25,-36.5 38.25,-30.5 44.25,-24.5 50.25,-24.5 50.25,-24.5 181,-24.5 181,-24.5 187,-24.5 193,-30.5 193,-36.5 193,-36.5 193,-48.5 193,-48.5 193,-54.5 187,-60.5 181,-60.5"/>
<text xml:space="preserve" text-anchor="middle" x="115.62" y="-37.45" font-family="Times New Roman,serif" font-size="14.00">SHADERC_COMPILER</text>
</g>
<!-- SHADERC_RESULT -->
<g id="node2" class="node">
<title>SHADERC_RESULT</title>
<path fill="none" stroke="black" d="M171.62,-132.5C171.62,-132.5 59.62,-132.5 59.62,-132.5 53.62,-132.5 47.62,-126.5 47.62,-120.5 47.62,-120.5 47.62,-108.5 47.62,-108.5 47.62,-102.5 53.62,-96.5 59.62,-96.5 59.62,-96.5 171.62,-96.5 171.62,-96.5 177.62,-96.5 183.62,-102.5 183.62,-108.5 183.62,-108.5 183.62,-120.5 183.62,-120.5 183.62,-126.5 177.62,-132.5 171.62,-132.5"/>
<text xml:space="preserve" text-anchor="middle" x="115.62" y="-109.45" font-family="Times New Roman,serif" font-size="14.00">SHADERC_RESULT</text>
</g>
<!-- SIMPLE_SHADERC -->
<g id="node3" class="node">
<title>SIMPLE_SHADERC</title>
<path fill="none" stroke="black" d="M170.88,-204.5C170.88,-204.5 60.38,-204.5 60.38,-204.5 54.38,-204.5 48.38,-198.5 48.38,-192.5 48.38,-192.5 48.38,-180.5 48.38,-180.5 48.38,-174.5 54.38,-168.5 60.38,-168.5 60.38,-168.5 170.88,-168.5 170.88,-168.5 176.88,-168.5 182.88,-174.5 182.88,-180.5 182.88,-180.5 182.88,-192.5 182.88,-192.5 182.88,-198.5 176.88,-204.5 170.88,-204.5"/>
<text xml:space="preserve" text-anchor="middle" x="115.62" y="-181.45" font-family="Times New Roman,serif" font-size="14.00">SIMPLE_SHADERC</text>
</g>
<!-- LIB_TESTS -->
<g id="node4" class="node">
<title>LIB_TESTS</title>
<path fill="none" stroke="black" d="M145.75,-276.5C145.75,-276.5 85.5,-276.5 85.5,-276.5 79.5,-276.5 73.5,-270.5 73.5,-264.5 73.5,-264.5 73.5,-252.5 73.5,-252.5 73.5,-246.5 79.5,-240.5 85.5,-240.5 85.5,-240.5 145.75,-240.5 145.75,-240.5 151.75,-240.5 157.75,-246.5 157.75,-252.5 157.75,-252.5 157.75,-264.5 157.75,-264.5 157.75,-270.5 151.75,-276.5 145.75,-276.5"/>
<text xml:space="preserve" text-anchor="middle" x="115.62" y="-253.45" font-family="Times New Roman,serif" font-size="14.00">LIB_TESTS</text>
</g>
<!-- TEST_APP -->
<g id="node5" class="node">
<title>TEST_APP</title>
<path fill="none" stroke="black" d="M143.5,-348.5C143.5,-348.5 87.75,-348.5 87.75,-348.5 81.75,-348.5 75.75,-342.5 75.75,-336.5 75.75,-336.5 75.75,-324.5 75.75,-324.5 75.75,-318.5 81.75,-312.5 87.75,-312.5 87.75,-312.5 143.5,-312.5 143.5,-312.5 149.5,-312.5 155.5,-318.5 155.5,-324.5 155.5,-324.5 155.5,-336.5 155.5,-336.5 155.5,-342.5 149.5,-348.5 143.5,-348.5"/>
<text xml:space="preserve" text-anchor="middle" x="115.62" y="-325.45" font-family="Times New Roman,serif" font-size="14.00">TEST_APP</text>
</g>
</g>
</svg>
