<?xml version="1.0" encoding="UTF-8" standalone="no"?>
<!DOCTYPE svg PUBLIC "-//W3C//DTD SVG 1.1//EN"
 "http://www.w3.org/Graphics/SVG/1.1/DTD/svg11.dtd">
<!-- Generated by graphviz version 14.1.1 (20251213.1925)
 -->
<!-- Title: ContractCoverage Pages: 1 -->
<svg width="816pt" height="617pt"
 viewBox="48.00 48.00 768.00 569.00" xmlns="http://www.w3.org/2000/svg" xmlns:xlink="http://www.w3.org/1999/xlink">
<g id="graph0" class="graph" transform="scale(0.603869 0.603869) rotate(0) translate(83.49 938.24)">
<title>ContractCoverage</title>
<polygon fill="white" stroke="none" points="-4,4 -4,-858.75 1188.31,-858.75 1188.31,4 -4,4"/>
<text xml:space="preserve" text-anchor="middle" x="592.16" y="-841.25" font-family="Times New Roman,serif" font-size="10.00">simple_shaderc &#45; Contract Coverage</text>
<g id="clust1" class="cluster">
<title>cluster_SHADERC_COMPILER</title>
<polygon fill="white" stroke="black" points="244.75,-35 244.75,-509.5 701.25,-509.5 701.25,-35 244.75,-35"/>
<text xml:space="preserve" text-anchor="middle" x="473" y="-492.2" font-family="Times New Roman,serif" font-size="14.00">SHADERC_COMPILER</text>
</g>
<g id="clust2" class="cluster">
<title>cluster_SHADERC_RESULT</title>
<polygon fill="white" stroke="black" points="454.69,-595 454.69,-835.5 693.31,-835.5 693.31,-595 454.69,-595"/>
<text xml:space="preserve" text-anchor="middle" x="574" y="-818.2" font-family="Times New Roman,serif" font-size="14.00">SHADERC_RESULT</text>
</g>
<g id="clust3" class="cluster">
<title>cluster_SIMPLE_SHADERC</title>
<polygon fill="white" stroke="black" points="769.69,0 769.69,-456.5 1184.31,-456.5 1184.31,0 769.69,0"/>
<text xml:space="preserve" text-anchor="middle" x="977" y="-439.2" font-family="Times New Roman,serif" font-size="14.00">SIMPLE_SHADERC</text>
</g>
<g id="clust4" class="cluster">
<title>cluster_LIB_TESTS</title>
<polygon fill="white" stroke="black" points="769.44,-525 769.44,-753.5 1076.56,-753.5 1076.56,-525 769.44,-525"/>
<text xml:space="preserve" text-anchor="middle" x="923" y="-736.2" font-family="Times New Roman,serif" font-size="14.00">LIB_TESTS</text>
</g>
<g id="clust5" class="cluster">
<title>cluster_TEST_APP</title>
<polygon fill="white" stroke="black" points="0,-280.5 0,-456 174,-456 174,-280.5 0,-280.5"/>
<text xml:space="preserve" text-anchor="middle" x="87" y="-438.7" font-family="Times New Roman,serif" font-size="14.00">TEST_APP</text>
</g>
<g id="clust6" class="cluster">
<title>cluster_legend</title>
<polygon fill="lightyellow" stroke="black" points="174.62,-595.12 174.62,-791.38 395.37,-791.38 395.37,-595.12 174.62,-595.12"/>
<text xml:space="preserve" text-anchor="middle" x="285" y="-777.88" font-family="Times New Roman,serif" font-size="10.00">Legend</text>
</g>
<!-- SHADERC_COMPILER_make -->
<g id="node1" class="node">
<title>SHADERC_COMPILER_make</title>
<polygon fill="khaki" stroke="black" points="598.75,-71 544.75,-71 544.75,-35 598.75,-35 598.75,-71"/>
<text xml:space="preserve" text-anchor="middle" x="571.75" y="-49.12" font-family="Times New Roman,serif" font-size="10.00">make</text>
</g>
<!-- SHADERC_COMPILER_is_valid -->
<g id="node2" class="node">
<title>SHADERC_COMPILER_is_valid</title>
<polygon fill="lightgray" stroke="black" points="376.75,-77 322.75,-77 322.75,-41 376.75,-41 376.75,-77"/>
<text xml:space="preserve" text-anchor="middle" x="349.75" y="-55.12" font-family="Times New Roman,serif" font-size="10.00">is_valid</text>
</g>
<!-- SHADERC_COMPILER_compile -->
<g id="node3" class="node">
<title>SHADERC_COMPILER_compile</title>
<polygon fill="lightgray" stroke="black" points="298.75,-77 244.75,-77 244.75,-41 298.75,-41 298.75,-77"/>
<text xml:space="preserve" text-anchor="middle" x="271.75" y="-55.12" font-family="Times New Roman,serif" font-size="10.00">compile</text>
</g>
<!-- SHADERC_COMPILER_valid_compiler -->
<g id="node4" class="node">
<title>SHADERC_COMPILER_valid_compiler</title>
<polygon fill="lightgray" stroke="black" points="364.88,-305 286.63,-305 286.63,-269 364.88,-269 364.88,-305"/>
<text xml:space="preserve" text-anchor="middle" x="325.75" y="-283.12" font-family="Times New Roman,serif" font-size="10.00">valid_compiler</text>
</g>
<!-- SHADERC_COMPILER_source_not_empty -->
<g id="node5" class="node">
<title>SHADERC_COMPILER_source_not_empty</title>
<polygon fill="lightgray" stroke="black" points="407.63,-425 315.88,-425 315.88,-389 407.63,-389 407.63,-425"/>
<text xml:space="preserve" text-anchor="middle" x="361.75" y="-403.12" font-family="Times New Roman,serif" font-size="10.00">source_not_empty</text>
</g>
<!-- SHADERC_COMPILER_a_source -->
<g id="node6" class="node">
<title>SHADERC_COMPILER_a_source</title>
<polygon fill="lightgray" stroke="black" points="502.75,-485 448.75,-485 448.75,-449 502.75,-449 502.75,-485"/>
<text xml:space="preserve" text-anchor="middle" x="475.75" y="-463.12" font-family="Times New Roman,serif" font-size="10.00">a_source</text>
</g>
<!-- SHADERC_COMPILER_is_empty -->
<g id="node7" class="node">
<title>SHADERC_COMPILER_is_empty</title>
<polygon fill="lightcoral" stroke="black" points="580.75,-485 526.75,-485 526.75,-449 580.75,-449 580.75,-485"/>
<text xml:space="preserve" text-anchor="middle" x="553.75" y="-463.12" font-family="Times New Roman,serif" font-size="10.00">is_empty</text>
</g>
<!-- SHADERC_COMPILER_filename_not_empty -->
<g id="node8" class="node">
<title>SHADERC_COMPILER_filename_not_empty</title>
<polygon fill="lightgray" stroke="black" points="621.12,-209 520.37,-209 520.37,-173 621.12,-173 621.12,-209"/>
<text xml:space="preserve" text-anchor="middle" x="570.75" y="-187.12" font-family="Times New Roman,serif" font-size="10.00">filename_not_empty</text>
</g>
<!-- SHADERC_COMPILER_a_filename -->
<g id="node9" class="node">
<title>SHADERC_COMPILER_a_filename</title>
<polygon fill="lightgray" stroke="black" points="701.25,-191 640.25,-191 640.25,-155 701.25,-155 701.25,-191"/>
<text xml:space="preserve" text-anchor="middle" x="670.75" y="-169.12" font-family="Times New Roman,serif" font-size="10.00">a_filename</text>
</g>
<!-- SHADERC_COMPILER_entry_not_empty -->
<g id="node10" class="node">
<title>SHADERC_COMPILER_entry_not_empty</title>
<polygon fill="lightgray" stroke="black" points="685,-131 598.5,-131 598.5,-95 685,-95 685,-131"/>
<text xml:space="preserve" text-anchor="middle" x="641.75" y="-109.12" font-family="Times New Roman,serif" font-size="10.00">entry_not_empty</text>
</g>
<!-- SHADERC_COMPILER_a_entry_point -->
<g id="node11" class="node">
<title>SHADERC_COMPILER_a_entry_point</title>
<polygon fill="lightgray" stroke="black" points="341.62,-245 267.88,-245 267.88,-209 341.62,-209 341.62,-245"/>
<text xml:space="preserve" text-anchor="middle" x="304.75" y="-223.12" font-family="Times New Roman,serif" font-size="10.00">a_entry_point</text>
</g>
<!-- SHADERC_COMPILER_compile_compute -->
<g id="node12" class="node">
<title>SHADERC_COMPILER_compile_compute</title>
<polygon fill="khaki" stroke="black" points="519.5,-425 430,-425 430,-389 519.5,-389 519.5,-425"/>
<text xml:space="preserve" text-anchor="middle" x="474.75" y="-403.12" font-family="Times New Roman,serif" font-size="10.00">compile_compute</text>
</g>
<!-- SHADERC_COMPILER_compile_vertex -->
<g id="node13" class="node">
<title>SHADERC_COMPILER_compile_vertex</title>
<polygon fill="khaki" stroke="black" points="341.62,-365 261.88,-365 261.88,-329 341.62,-329 341.62,-365"/>
<text xml:space="preserve" text-anchor="middle" x="301.75" y="-343.12" font-family="Times New Roman,serif" font-size="10.00">compile_vertex</text>
</g>
<!-- SHADERC_COMPILER_compile_fragment -->
<g id="node14" class="node">
<title>SHADERC_COMPILER_compile_fragment</title>
<polygon fill="khaki" stroke="black" points="574.88,-149 484.62,-149 484.62,-113 574.88,-113 574.88,-149"/>
<text xml:space="preserve" text-anchor="middle" x="529.75" y="-127.12" font-family="Times New Roman,serif" font-size="10.00">compile_fragment</text>
</g>
<!-- SHADERC_COMPILER_Shader_vertex -->
<g id="node15" class="node">
<title>SHADERC_COMPILER_Shader_vertex</title>
<polygon fill="lightgray" stroke="black" points="523,-89 448.5,-89 448.5,-53 523,-53 523,-89"/>
<text xml:space="preserve" text-anchor="middle" x="485.75" y="-67.12" font-family="Times New Roman,serif" font-size="10.00">Shader_vertex</text>
</g>
<!-- SHADERC_COMPILER_Shader_fragment -->
<g id="node16" class="node">
<title>SHADERC_COMPILER_Shader_fragment</title>
<polygon fill="lightgray" stroke="black" points="695.25,-269 610.25,-269 610.25,-233 695.25,-233 695.25,-269"/>
<text xml:space="preserve" text-anchor="middle" x="652.75" y="-247.12" font-family="Times New Roman,serif" font-size="10.00">Shader_fragment</text>
</g>
<!-- SHADERC_COMPILER_Shader_compute -->
<g id="node17" class="node">
<title>SHADERC_COMPILER_Shader_compute</title>
<polygon fill="lightgray" stroke="black" points="388.88,-137 304.62,-137 304.62,-101 388.88,-101 388.88,-137"/>
<text xml:space="preserve" text-anchor="middle" x="346.75" y="-115.12" font-family="Times New Roman,serif" font-size="10.00">Shader_compute</text>
</g>
<!-- SHADERC_COMPILER_Shader_geometry -->
<g id="node18" class="node">
<title>SHADERC_COMPILER_Shader_geometry</title>
<polygon fill="lightgray" stroke="black" points="691.37,-437 604.12,-437 604.12,-401 691.37,-401 691.37,-437"/>
<text xml:space="preserve" text-anchor="middle" x="647.75" y="-415.12" font-family="Times New Roman,serif" font-size="10.00">Shader_geometry</text>
</g>
<!-- SHADERC_COMPILER_Shader_tess_control -->
<g id="node19" class="node">
<title>SHADERC_COMPILER_Shader_tess_control</title>
<polygon fill="lightgray" stroke="black" points="463,-365 364.5,-365 364.5,-329 463,-329 463,-365"/>
<text xml:space="preserve" text-anchor="middle" x="413.75" y="-343.12" font-family="Times New Roman,serif" font-size="10.00">Shader_tess_control</text>
</g>
<!-- SHADERC_COMPILER_Shader_tess_evaluation -->
<g id="node20" class="node">
<title>SHADERC_COMPILER_Shader_tess_evaluation</title>
<polygon fill="lightgray" stroke="black" points="501.13,-257 388.38,-257 388.38,-221 501.13,-221 501.13,-257"/>
<text xml:space="preserve" text-anchor="middle" x="444.75" y="-235.12" font-family="Times New Roman,serif" font-size="10.00">Shader_tess_evaluation</text>
</g>
<!-- SHADERC_COMPILER_dispose -->
<g id="node21" class="node">
<title>SHADERC_COMPILER_dispose</title>
<polygon fill="khaki" stroke="black" points="424.75,-485 370.75,-485 370.75,-449 424.75,-449 424.75,-485"/>
<text xml:space="preserve" text-anchor="middle" x="397.75" y="-463.12" font-family="Times New Roman,serif" font-size="10.00">dispose</text>
</g>
<!-- SHADERC_COMPILER_handle -->
<g id="node22" class="node">
<title>SHADERC_COMPILER_handle</title>
<polygon fill="lightgray" stroke="black" points="346.75,-485 292.75,-485 292.75,-449 346.75,-449 346.75,-485"/>
<text xml:space="preserve" text-anchor="middle" x="319.75" y="-463.12" font-family="Times New Roman,serif" font-size="10.00">handle</text>
</g>
<!-- SHADERC_COMPILER_c_compiler_initialize -->
<g id="node23" class="node">
<title>SHADERC_COMPILER_c_compiler_initialize</title>
<polygon fill="lightcoral" stroke="black" points="587.62,-317 483.88,-317 483.88,-281 587.62,-281 587.62,-317"/>
<text xml:space="preserve" text-anchor="middle" x="535.75" y="-295.12" font-family="Times New Roman,serif" font-size="10.00">c_compiler_initialize</text>
</g>
<!-- SHADERC_COMPILER_c_compiler_release -->
<g id="node24" class="node">
<title>SHADERC_COMPILER_c_compiler_release</title>
<polygon fill="lightcoral" stroke="black" points="639.12,-377 544.38,-377 544.38,-341 639.12,-341 639.12,-377"/>
<text xml:space="preserve" text-anchor="middle" x="591.75" y="-355.12" font-family="Times New Roman,serif" font-size="10.00">c_compiler_release</text>
</g>
<!-- SHADERC_COMPILER_c_compile_into_spv -->
<g id="node25" class="node">
<title>SHADERC_COMPILER_c_compile_into_spv</title>
<polygon fill="lightcoral" stroke="black" points="464.75,-197 364.75,-197 364.75,-161 464.75,-161 464.75,-197"/>
<text xml:space="preserve" text-anchor="middle" x="414.75" y="-175.12" font-family="Times New Roman,serif" font-size="10.00">c_compile_into_spv</text>
</g>
<!-- SHADERC_RESULT_make_from_handle -->
<g id="node26" class="node">
<title>SHADERC_RESULT_make_from_handle</title>
<polygon fill="palegreen" stroke="black" points="579.69,-691 484.94,-691 484.94,-655 579.69,-655 579.69,-691"/>
<text xml:space="preserve" text-anchor="middle" x="532.31" y="-669.13" font-family="Times New Roman,serif" font-size="10.00">make_from_handle</text>
</g>
<!-- SHADERC_RESULT_is_success -->
<g id="node27" class="node">
<title>SHADERC_RESULT_is_success</title>
<polygon fill="lightgray" stroke="black" points="693.31,-811 635.31,-811 635.31,-775 693.31,-775 693.31,-811"/>
<text xml:space="preserve" text-anchor="middle" x="664.31" y="-789.12" font-family="Times New Roman,serif" font-size="10.00">is_success</text>
</g>
<!-- SHADERC_RESULT_spirv_bytes -->
<g id="node28" class="node">
<title>SHADERC_RESULT_spirv_bytes</title>
<polygon fill="lightgray" stroke="black" points="661.94,-655 598.69,-655 598.69,-619 661.94,-619 661.94,-655"/>
<text xml:space="preserve" text-anchor="middle" x="630.31" y="-633.13" font-family="Times New Roman,serif" font-size="10.00">spirv_bytes</text>
</g>
<!-- SHADERC_RESULT_spirv_size -->
<g id="node29" class="node">
<title>SHADERC_RESULT_spirv_size</title>
<polygon fill="lightgray" stroke="black" points="511.94,-631 454.69,-631 454.69,-595 511.94,-595 511.94,-631"/>
<text xml:space="preserve" text-anchor="middle" x="483.31" y="-609.12" font-family="Times New Roman,serif" font-size="10.00">spirv_size</text>
</g>
<!-- SHADERC_RESULT_error_message -->
<g id="node30" class="node">
<title>SHADERC_RESULT_error_message</title>
<polygon fill="lightgray" stroke="black" points="648.19,-751 574.44,-751 574.44,-715 648.19,-715 648.19,-751"/>
<text xml:space="preserve" text-anchor="middle" x="611.31" y="-729.12" font-family="Times New Roman,serif" font-size="10.00">error_message</text>
</g>
<!-- SHADERC_RESULT_make_empty -->
<g id="node31" class="node">
<title>SHADERC_RESULT_make_empty</title>
<polygon fill="lightgray" stroke="black" points="553.56,-769 485.06,-769 485.06,-733 553.56,-733 553.56,-769"/>
<text xml:space="preserve" text-anchor="middle" x="519.31" y="-747.12" font-family="Times New Roman,serif" font-size="10.00">make_empty</text>
</g>
<!-- SIMPLE_SHADERC_make -->
<g id="node32" class="node">
<title>SIMPLE_SHADERC_make</title>
<polygon fill="lightcoral" stroke="black" points="914.31,-432 860.31,-432 860.31,-396 914.31,-396 914.31,-432"/>
<text xml:space="preserve" text-anchor="middle" x="887.31" y="-410.12" font-family="Times New Roman,serif" font-size="10.00">make</text>
</g>
<!-- SIMPLE_SHADERC_compile_glsl -->
<g id="node33" class="node">
<title>SIMPLE_SHADERC_compile_glsl</title>
<polygon fill="lightgray" stroke="black" points="1162.94,-390 1093.69,-390 1093.69,-354 1162.94,-354 1162.94,-390"/>
<text xml:space="preserve" text-anchor="middle" x="1128.31" y="-368.12" font-family="Times New Roman,serif" font-size="10.00">compile_glsl</text>
</g>
<!-- SIMPLE_SHADERC_source_not_empty -->
<g id="node34" class="node">
<title>SIMPLE_SHADERC_source_not_empty</title>
<polygon fill="lightgray" stroke="black" points="951.19,-312 859.44,-312 859.44,-276 951.19,-276 951.19,-312"/>
<text xml:space="preserve" text-anchor="middle" x="905.31" y="-290.12" font-family="Times New Roman,serif" font-size="10.00">source_not_empty</text>
</g>
<!-- SIMPLE_SHADERC_a_source -->
<g id="node35" class="node">
<title>SIMPLE_SHADERC_a_source</title>
<polygon fill="lightgray" stroke="black" points="992.31,-432 938.31,-432 938.31,-396 992.31,-396 992.31,-432"/>
<text xml:space="preserve" text-anchor="middle" x="965.31" y="-410.12" font-family="Times New Roman,serif" font-size="10.00">a_source</text>
</g>
<!-- SIMPLE_SHADERC_is_empty -->
<g id="node36" class="node">
<title>SIMPLE_SHADERC_is_empty</title>
<polygon fill="khaki" stroke="black" points="1070.31,-432 1016.31,-432 1016.31,-396 1070.31,-396 1070.31,-432"/>
<text xml:space="preserve" text-anchor="middle" x="1043.31" y="-410.12" font-family="Times New Roman,serif" font-size="10.00">is_empty</text>
</g>
<!-- SIMPLE_SHADERC_compile_compute -->
<g id="node37" class="node">
<title>SIMPLE_SHADERC_compile_compute</title>
<polygon fill="khaki" stroke="black" points="943.06,-150 853.56,-150 853.56,-114 943.06,-114 943.06,-150"/>
<text xml:space="preserve" text-anchor="middle" x="898.31" y="-128.12" font-family="Times New Roman,serif" font-size="10.00">compile_compute</text>
</g>
<!-- SIMPLE_SHADERC_compile_vertex -->
<g id="node38" class="node">
<title>SIMPLE_SHADERC_compile_vertex</title>
<polygon fill="khaki" stroke="black" points="873.19,-90 793.44,-90 793.44,-54 873.19,-54 873.19,-90"/>
<text xml:space="preserve" text-anchor="middle" x="833.31" y="-68.12" font-family="Times New Roman,serif" font-size="10.00">compile_vertex</text>
</g>
<!-- SIMPLE_SHADERC_compile_fragment -->
<g id="node39" class="node">
<title>SIMPLE_SHADERC_compile_fragment</title>
<polygon fill="khaki" stroke="black" points="1124.44,-330 1034.19,-330 1034.19,-294 1124.44,-294 1124.44,-330"/>
<text xml:space="preserve" text-anchor="middle" x="1079.31" y="-308.12" font-family="Times New Roman,serif" font-size="10.00">compile_fragment</text>
</g>
<!-- SIMPLE_SHADERC_has_error -->
<g id="node40" class="node">
<title>SIMPLE_SHADERC_has_error</title>
<polygon fill="lightgray" stroke="black" points="1148.31,-36 1094.31,-36 1094.31,0 1148.31,0 1148.31,-36"/>
<text xml:space="preserve" text-anchor="middle" x="1121.31" y="-14.12" font-family="Times New Roman,serif" font-size="10.00">has_error</text>
</g>
<!-- SIMPLE_SHADERC_last_error -->
<g id="node41" class="node">
<title>SIMPLE_SHADERC_last_error</title>
<polygon fill="lightgray" stroke="black" points="1070.44,-36 1016.19,-36 1016.19,0 1070.44,0 1070.44,-36"/>
<text xml:space="preserve" text-anchor="middle" x="1043.31" y="-14.12" font-family="Times New Roman,serif" font-size="10.00">last_error</text>
</g>
<!-- SIMPLE_SHADERC_is_ready -->
<g id="node42" class="node">
<title>SIMPLE_SHADERC_is_ready</title>
<polygon fill="lightcoral" stroke="black" points="836.31,-432 782.31,-432 782.31,-396 836.31,-396 836.31,-432"/>
<text xml:space="preserve" text-anchor="middle" x="809.31" y="-410.12" font-family="Times New Roman,serif" font-size="10.00">is_ready</text>
</g>
<!-- SIMPLE_SHADERC_Shader_vertex -->
<g id="node43" class="node">
<title>SIMPLE_SHADERC_Shader_vertex</title>
<polygon fill="lightgray" stroke="black" points="1168.56,-222 1094.06,-222 1094.06,-186 1168.56,-186 1168.56,-222"/>
<text xml:space="preserve" text-anchor="middle" x="1131.31" y="-200.12" font-family="Times New Roman,serif" font-size="10.00">Shader_vertex</text>
</g>
<!-- SIMPLE_SHADERC_Shader_fragment -->
<g id="node44" class="node">
<title>SIMPLE_SHADERC_Shader_fragment</title>
<polygon fill="lightgray" stroke="black" points="1010.81,-372 925.81,-372 925.81,-336 1010.81,-336 1010.81,-372"/>
<text xml:space="preserve" text-anchor="middle" x="968.31" y="-350.12" font-family="Times New Roman,serif" font-size="10.00">Shader_fragment</text>
</g>
<!-- SIMPLE_SHADERC_Shader_compute -->
<g id="node45" class="node">
<title>SIMPLE_SHADERC_Shader_compute</title>
<polygon fill="lightgray" stroke="black" points="1052.44,-102 968.19,-102 968.19,-66 1052.44,-66 1052.44,-102"/>
<text xml:space="preserve" text-anchor="middle" x="1010.31" y="-80.12" font-family="Times New Roman,serif" font-size="10.00">Shader_compute</text>
</g>
<!-- SIMPLE_SHADERC_Shader_geometry -->
<g id="node46" class="node">
<title>SIMPLE_SHADERC_Shader_geometry</title>
<polygon fill="lightgray" stroke="black" points="1162.94,-96 1075.69,-96 1075.69,-60 1162.94,-60 1162.94,-96"/>
<text xml:space="preserve" text-anchor="middle" x="1119.31" y="-74.12" font-family="Times New Roman,serif" font-size="10.00">Shader_geometry</text>
</g>
<!-- SIMPLE_SHADERC_Shader_tess_control -->
<g id="node47" class="node">
<title>SIMPLE_SHADERC_Shader_tess_control</title>
<polygon fill="lightgray" stroke="black" points="1108.56,-162 1010.06,-162 1010.06,-126 1108.56,-126 1108.56,-162"/>
<text xml:space="preserve" text-anchor="middle" x="1059.31" y="-140.12" font-family="Times New Roman,serif" font-size="10.00">Shader_tess_control</text>
</g>
<!-- SIMPLE_SHADERC_Shader_tess_evaluation -->
<g id="node48" class="node">
<title>SIMPLE_SHADERC_Shader_tess_evaluation</title>
<polygon fill="lightgray" stroke="black" points="990.69,-210 877.94,-210 877.94,-174 990.69,-174 990.69,-210"/>
<text xml:space="preserve" text-anchor="middle" x="934.31" y="-188.12" font-family="Times New Roman,serif" font-size="10.00">Shader_tess_evaluation</text>
</g>
<!-- SIMPLE_SHADERC_dispose -->
<g id="node49" class="node">
<title>SIMPLE_SHADERC_dispose</title>
<polygon fill="lightcoral" stroke="black" points="992.31,-42 938.31,-42 938.31,-6 992.31,-6 992.31,-42"/>
<text xml:space="preserve" text-anchor="middle" x="965.31" y="-20.12" font-family="Times New Roman,serif" font-size="10.00">dispose</text>
</g>
<!-- SIMPLE_SHADERC_compiler -->
<g id="node50" class="node">
<title>SIMPLE_SHADERC_compiler</title>
<polygon fill="lightgray" stroke="black" points="1184.31,-156 1130.31,-156 1130.31,-120 1184.31,-120 1184.31,-156"/>
<text xml:space="preserve" text-anchor="middle" x="1157.31" y="-134.12" font-family="Times New Roman,serif" font-size="10.00">compiler</text>
</g>
<!-- SIMPLE_SHADERC_ensure_compiler -->
<g id="node51" class="node">
<title>SIMPLE_SHADERC_ensure_compiler</title>
<polygon fill="khaki" stroke="black" points="901.06,-372 817.56,-372 817.56,-336 901.06,-336 901.06,-372"/>
<text xml:space="preserve" text-anchor="middle" x="859.31" y="-350.12" font-family="Times New Roman,serif" font-size="10.00">ensure_compiler</text>
</g>
<!-- SIMPLE_SHADERC_save_spirv -->
<g id="node52" class="node">
<title>SIMPLE_SHADERC_save_spirv</title>
<polygon fill="khaki" stroke="black" points="835.06,-312 775.56,-312 775.56,-276 835.06,-276 835.06,-312"/>
<text xml:space="preserve" text-anchor="middle" x="805.31" y="-290.12" font-family="Times New Roman,serif" font-size="10.00">save_spirv</text>
</g>
<!-- SIMPLE_SHADERC_verify_spirv_magic -->
<g id="node53" class="node">
<title>SIMPLE_SHADERC_verify_spirv_magic</title>
<polygon fill="khaki" stroke="black" points="1069.06,-270 973.56,-270 973.56,-234 1069.06,-234 1069.06,-270"/>
<text xml:space="preserve" text-anchor="middle" x="1021.31" y="-248.12" font-family="Times New Roman,serif" font-size="10.00">verify_spirv_magic</text>
</g>
<!-- SIMPLE_SHADERC_Spirv_magic -->
<g id="node54" class="node">
<title>SIMPLE_SHADERC_Spirv_magic</title>
<polygon fill="lightgray" stroke="black" points="855.19,-252 787.44,-252 787.44,-216 855.19,-216 855.19,-252"/>
<text xml:space="preserve" text-anchor="middle" x="821.31" y="-230.12" font-family="Times New Roman,serif" font-size="10.00">Spirv_magic</text>
</g>
<!-- SIMPLE_SHADERC_x07230203 -->
<g id="node55" class="node">
<title>SIMPLE_SHADERC_x07230203</title>
<polygon fill="lightgray" stroke="black" points="832.94,-192 769.69,-192 769.69,-156 832.94,-156 832.94,-192"/>
<text xml:space="preserve" text-anchor="middle" x="801.31" y="-170.12" font-family="Times New Roman,serif" font-size="10.00">x07230203</text>
</g>
<!-- LIB_TESTS_test_compiler_initialization -->
<g id="node56" class="node">
<title>LIB_TESTS_test_compiler_initialization</title>
<polygon fill="lightcoral" stroke="black" points="924.19,-729 794.19,-729 794.19,-693 924.19,-693 924.19,-729"/>
<text xml:space="preserve" text-anchor="middle" x="859.19" y="-707.12" font-family="Times New Roman,serif" font-size="10.00">test_compiler_initialization</text>
</g>
<!-- LIB_TESTS_test_facade_ready -->
<g id="node57" class="node">
<title>LIB_TESTS_test_facade_ready</title>
<polygon fill="lightcoral" stroke="black" points="858.94,-673 769.44,-673 769.44,-637 858.94,-637 858.94,-673"/>
<text xml:space="preserve" text-anchor="middle" x="814.19" y="-651.13" font-family="Times New Roman,serif" font-size="10.00">test_facade_ready</text>
</g>
<!-- LIB_TESTS_test_compile_simple_compute_shader -->
<g id="node58" class="node">
<title>LIB_TESTS_test_compile_simple_compute_shader</title>
<polygon fill="lightcoral" stroke="black" points="942.56,-617 769.81,-617 769.81,-581 942.56,-581 942.56,-617"/>
<text xml:space="preserve" text-anchor="middle" x="856.19" y="-595.13" font-family="Times New Roman,serif" font-size="10.00">test_compile_simple_compute_shader</text>
</g>
<!-- LIB_TESTS_test_compile_fragment_shader -->
<g id="node59" class="node">
<title>LIB_TESTS_test_compile_fragment_shader</title>
<polygon fill="lightcoral" stroke="black" points="1030.81,-673 889.56,-673 889.56,-637 1030.81,-637 1030.81,-673"/>
<text xml:space="preserve" text-anchor="middle" x="960.19" y="-651.13" font-family="Times New Roman,serif" font-size="10.00">test_compile_fragment_shader</text>
</g>
<!-- LIB_TESTS_test_compile_vertex_shader -->
<g id="node60" class="node">
<title>LIB_TESTS_test_compile_vertex_shader</title>
<polygon fill="lightcoral" stroke="black" points="1076.56,-729 945.81,-729 945.81,-693 1076.56,-693 1076.56,-729"/>
<text xml:space="preserve" text-anchor="middle" x="1011.19" y="-707.12" font-family="Times New Roman,serif" font-size="10.00">test_compile_vertex_shader</text>
</g>
<!-- LIB_TESTS_test_compile_error_handling -->
<g id="node61" class="node">
<title>LIB_TESTS_test_compile_error_handling</title>
<polygon fill="lightcoral" stroke="black" points="992.44,-561 857.94,-561 857.94,-525 992.44,-525 992.44,-561"/>
<text xml:space="preserve" text-anchor="middle" x="925.19" y="-539.13" font-family="Times New Roman,serif" font-size="10.00">test_compile_error_handling</text>
</g>
<!-- LIB_TESTS_test_sdf_sphere_shader -->
<g id="node62" class="node">
<title>LIB_TESTS_test_sdf_sphere_shader</title>
<polygon fill="lightcoral" stroke="black" points="1072.44,-617 961.94,-617 961.94,-581 1072.44,-581 1072.44,-617"/>
<text xml:space="preserve" text-anchor="middle" x="1017.19" y="-595.13" font-family="Times New Roman,serif" font-size="10.00">test_sdf_sphere_shader</text>
</g>
<!-- LIB_TESTS_check_true -->
<g id="node63" class="node">
<title>LIB_TESTS_check_true</title>
<polygon fill="lightcoral" stroke="black" points="838.69,-561 777.69,-561 777.69,-525 838.69,-525 838.69,-561"/>
<text xml:space="preserve" text-anchor="middle" x="808.19" y="-539.13" font-family="Times New Roman,serif" font-size="10.00">check_true</text>
</g>
<!-- TEST_APP_make -->
<g id="node64" class="node">
<title>TEST_APP_make</title>
<polygon fill="lightcoral" stroke="black" points="54,-316.5 0,-316.5 0,-280.5 54,-280.5 54,-316.5"/>
<text xml:space="preserve" text-anchor="middle" x="27" y="-294.63" font-family="Times New Roman,serif" font-size="10.00">make</text>
</g>
<!-- TEST_APP_lib_tests -->
<g id="node65" class="node">
<title>TEST_APP_lib_tests</title>
<polygon fill="lightgray" stroke="black" points="99,-371.5 45,-371.5 45,-335.5 99,-335.5 99,-371.5"/>
<text xml:space="preserve" text-anchor="middle" x="72" y="-349.63" font-family="Times New Roman,serif" font-size="10.00">lib_tests</text>
</g>
<!-- TEST_APP_passed -->
<g id="node66" class="node">
<title>TEST_APP_passed</title>
<polygon fill="lightgray" stroke="black" points="164,-426.5 110,-426.5 110,-390.5 164,-390.5 164,-426.5"/>
<text xml:space="preserve" text-anchor="middle" x="137" y="-404.63" font-family="Times New Roman,serif" font-size="10.00">passed</text>
</g>
<!-- TEST_APP_failed -->
<g id="node67" class="node">
<title>TEST_APP_failed</title>
<polygon fill="lightgray" stroke="black" points="89,-431.5 35,-431.5 35,-395.5 89,-395.5 89,-431.5"/>
<text xml:space="preserve" text-anchor="middle" x="62" y="-409.63" font-family="Times New Roman,serif" font-size="10.00">failed</text>
</g>
<!-- TEST_APP_run_test -->
<g id="node68" class="node">
<title>TEST_APP_run_test</title>
<polygon fill="lightcoral" stroke="black" points="174,-346.5 120,-346.5 120,-310.5 174,-310.5 174,-346.5"/>
<text xml:space="preserve" text-anchor="middle" x="147" y="-324.63" font-family="Times New Roman,serif" font-size="10.00">run_test</text>
</g>
<!-- legend_full -->
<g id="node69" class="node">
<title>legend_full</title>
<polygon fill="palegreen" stroke="black" points="384.87,-700.12 270.62,-700.12 270.62,-659.12 384.87,-659.12 384.87,-700.12"/>
<text xml:space="preserve" text-anchor="middle" x="327.75" y="-682.83" font-family="Times New Roman,serif" font-size="14.00">Full Contract</text>
<text xml:space="preserve" text-anchor="middle" x="327.75" y="-666.33" font-family="Times New Roman,serif" font-size="14.00">(require + ensure)</text>
</g>
<!-- legend_partial -->
<g id="node70" class="node">
<title>legend_partial</title>
<polygon fill="khaki" stroke="black" points="395.37,-636.12 278.12,-636.12 278.12,-595.12 395.37,-595.12 395.37,-636.12"/>
<text xml:space="preserve" text-anchor="middle" x="336.75" y="-618.83" font-family="Times New Roman,serif" font-size="14.00">Partial Contract</text>
<text xml:space="preserve" text-anchor="middle" x="336.75" y="-602.33" font-family="Times New Roman,serif" font-size="14.00">(require or ensure)</text>
</g>
<!-- legend_none -->
<g id="node71" class="node">
<title>legend_none</title>
<polygon fill="lightcoral" stroke="black" points="361.12,-758.62 278.37,-758.62 278.37,-722.62 361.12,-722.62 361.12,-758.62"/>
<text xml:space="preserve" text-anchor="middle" x="319.75" y="-735.58" font-family="Times New Roman,serif" font-size="14.00">No Contract</text>
</g>
<!-- legend_attr -->
<g id="node72" class="node">
<title>legend_attr</title>
<polygon fill="lightgray" stroke="black" points="255.12,-772.12 190.37,-772.12 190.37,-731.12 255.12,-731.12 255.12,-772.12"/>
<text xml:space="preserve" text-anchor="middle" x="222.75" y="-754.83" font-family="Times New Roman,serif" font-size="14.00">Attribute</text>
<text xml:space="preserve" text-anchor="middle" x="222.75" y="-738.33" font-family="Times New Roman,serif" font-size="14.00">(n/a)</text>
</g>
<!-- legend_stats -->
<g id="node73" class="node">
<title>legend_stats</title>
<polygon fill="white" stroke="black" points="240.87,-710.12 174.62,-710.12 174.62,-603.12 246.87,-603.12 246.87,-704.12 240.87,-710.12"/>
<polyline fill="none" stroke="black" points="240.87,-710.12 240.87,-704.12"/>
<polyline fill="none" stroke="black" points="246.87,-704.12 240.87,-704.12"/>
<text xml:space="preserve" text-anchor="middle" x="210.75" y="-692.83" font-family="Times New Roman,serif" font-size="14.00">Statistics</text>
<text xml:space="preserve" text-anchor="middle" x="210.75" y="-676.33" font-family="Times New Roman,serif" font-size="14.00">Full: 1</text>
<text xml:space="preserve" text-anchor="middle" x="210.75" y="-659.83" font-family="Times New Roman,serif" font-size="14.00">Partial: 12</text>
<text xml:space="preserve" text-anchor="middle" x="210.75" y="-643.33" font-family="Times New Roman,serif" font-size="14.00">None: 17</text>
<text xml:space="preserve" text-anchor="middle" x="210.75" y="-626.83" font-family="Times New Roman,serif" font-size="14.00">Attr: 40</text>
<text xml:space="preserve" text-anchor="middle" x="210.75" y="-610.33" font-family="Times New Roman,serif" font-size="14.00">Total: 70</text>
</g>
</g>
</svg>
